<?xml version="1.0" encoding="UTF-8"?>
<svg id="Layer_2" data-name="Layer 2" xmlns="http://www.w3.org/2000/svg" viewBox="0 0 377.85 143.18">
  <defs>
    <style>
      .cls-1 {
        fill: #ffffff;
      }

      .cls-2 {
        fill: #169d75;
      }
    </style>
  </defs>
  <g id="Layer_1-2" data-name="Layer 1">
    <g>
      <path class="cls-2" d="M.01,118.63c0-31.59,0-63.19-.01-94.78l25.39-.03c.01,11.08.02,22.16.03,33.24C45.24,38.06,65.06,19.06,84.88.06c11.49-.02,22.98-.04,34.47-.06C79.57,39.54,39.79,79.09.01,118.63Z"/>
      <path class="cls-1" d="M117.39,143.18h-38.01c-14.23-15.69-28.45-31.37-42.68-47.06,6.94-6.72,13.89-13.44,20.83-20.17,19.95,22.41,39.9,44.82,59.86,67.23Z"/>
      <g>
        <path class="cls-1" d="M153.64,89.53v-43.65h7.56v43.65h-7.56ZM160.55,79.36v-9.11h1.11l11.87-13.07h8.94l-14.47,15.94h-1.55l-5.89,6.24ZM174.12,89.53l-10.72-14.74,5.13-5.33,14.71,20.07h-9.11Z"/>
        <path class="cls-1" d="M200.13,90.2c-3.14,0-5.88-.7-8.22-2.09s-4.14-3.35-5.42-5.86-1.92-5.43-1.92-8.77.64-6.27,1.92-8.79,3.09-4.48,5.42-5.87c2.33-1.4,5.07-2.09,8.22-2.09s5.91.7,8.25,2.09c2.33,1.4,4.14,3.35,5.42,5.87s1.92,5.45,1.92,8.79-.64,6.26-1.92,8.77-3.09,4.46-5.42,5.86-5.08,2.09-8.25,2.09ZM200.13,84.02c1.74,0,3.19-.46,4.37-1.39s2.06-2.19,2.65-3.78.89-3.38.89-5.38-.3-3.84-.89-5.43c-.6-1.59-1.48-2.85-2.65-3.76-1.17-.92-2.63-1.38-4.37-1.38s-3.16.46-4.34,1.38c-1.17.92-2.05,2.17-2.64,3.76-.59,1.59-.88,3.4-.88,5.43s.29,3.78.88,5.38,1.46,2.85,2.64,3.78,2.62,1.39,4.34,1.39Z"/>
        <path class="cls-1" d="M229.58,70.72v18.81h-7.56v-32.34h7.24l.09,8.03h-.79c.92-2.81,2.27-4.93,4.06-6.36,1.79-1.42,4.02-2.14,6.69-2.14,2.23,0,4.18.48,5.86,1.44,1.68.96,2.98,2.35,3.91,4.19.93,1.84,1.39,4.07,1.39,6.71v20.48h-7.56v-19.31c0-2.23-.56-3.96-1.68-5.19s-2.69-1.85-4.7-1.85c-1.33,0-2.51.29-3.56.86-1.04.58-1.87,1.42-2.48,2.53s-.91,2.49-.91,4.13Z"/>
        <path class="cls-1" d="M270.53,90.2c-2.5,0-4.73-.37-6.68-1.1s-3.54-1.81-4.78-3.22-2.01-3.14-2.34-5.17l7.18-1.05c.37,1.6,1.12,2.8,2.26,3.59s2.62,1.19,4.45,1.19,3.33-.37,4.41-1.11,1.63-1.66,1.63-2.75c0-.94-.37-1.71-1.1-2.31-.73-.6-1.82-1.06-3.27-1.38l-5.51-1.17c-3.07-.66-5.36-1.76-6.88-3.28s-2.29-3.48-2.29-5.86c0-1.99.55-3.72,1.64-5.2,1.09-1.47,2.62-2.62,4.57-3.43,1.95-.81,4.23-1.22,6.83-1.22s4.62.37,6.43,1.1,3.26,1.76,4.37,3.08,1.83,2.88,2.18,4.67l-6.83,1.03c-.29-1.17-.94-2.17-1.93-2.99s-2.36-1.23-4.1-1.23c-1.62,0-2.96.36-4.01,1.07-1.05.71-1.58,1.62-1.58,2.71,0,.96.36,1.74,1.08,2.34.72.61,1.88,1.08,3.46,1.44l5.57,1.17c3.09.66,5.38,1.72,6.87,3.16,1.49,1.45,2.24,3.31,2.24,5.6,0,2.07-.59,3.88-1.77,5.42s-2.81,2.75-4.89,3.62-4.48,1.3-7.19,1.3Z"/>
        <path class="cls-1" d="M304.87,90.2c-3.24,0-6.04-.69-8.39-2.08s-4.17-3.33-5.43-5.83-1.9-5.43-1.9-8.79.63-6.21,1.89-8.75c1.26-2.53,3.04-4.5,5.33-5.92,2.29-1.42,4.98-2.12,8.04-2.12,2.05,0,3.98.34,5.79,1.01s3.4,1.69,4.78,3.05c1.38,1.36,2.46,3.07,3.24,5.13.78,2.06,1.17,4.48,1.17,7.25v2.29h-26.78v-5.16h23l-3.52,1.49c0-1.83-.29-3.44-.88-4.8-.59-1.37-1.44-2.43-2.56-3.18-1.12-.75-2.51-1.13-4.17-1.13s-3.05.38-4.22,1.14-2.07,1.8-2.68,3.12-.92,2.8-.92,4.44v3.49c0,2.01.34,3.72,1.03,5.13s1.66,2.47,2.92,3.19,2.73,1.08,4.41,1.08c1.13,0,2.16-.17,3.08-.5s1.7-.82,2.36-1.45,1.15-1.41,1.48-2.33l6.97,1.11c-.49,1.82-1.37,3.41-2.65,4.78s-2.89,2.43-4.82,3.19-4.11,1.14-6.53,1.14Z"/>
        <path class="cls-1" d="M333.11,70.72v18.81h-7.56v-32.34h7.24l.09,8.03h-.79c.92-2.81,2.27-4.93,4.06-6.36,1.79-1.42,4.02-2.14,6.69-2.14,2.23,0,4.18.48,5.86,1.44,1.68.96,2.98,2.35,3.91,4.19.93,1.84,1.39,4.07,1.39,6.71v20.48h-7.56v-19.31c0-2.23-.56-3.96-1.68-5.19s-2.69-1.85-4.7-1.85c-1.33,0-2.51.29-3.56.86-1.04.58-1.87,1.42-2.48,2.53s-.91,2.49-.91,4.13Z"/>
        <path class="cls-1" d="M377.15,57.18v5.95h-18.72v-5.95h18.72ZM363.26,49.24h7.56v31.14c0,1.15.25,1.99.75,2.52s1.33.79,2.5.79c.37,0,.85-.03,1.44-.09s1.05-.12,1.41-.18l.94,5.89c-.76.2-1.57.34-2.43.42s-1.7.13-2.52.13c-3.14,0-5.54-.75-7.18-2.26s-2.46-3.67-2.46-6.5v-31.88Z"/>
      </g>
    </g>
  </g>
</svg>
